<?xml version="1.0" encoding="utf-8"?>
<svg viewBox="370.939 913.958 1231.357 195.028" style="enable-background:new 0 0 2000 2000;" xmlns="http://www.w3.org/2000/svg">
  <defs>
    <style type="text/css">
	.st0{fill:#58595B;}
	.st1{fill:#A7A9AC;}
</style>
  </defs>
  <g style="">
    <g>
      <path d="M437.64,970.57h54.59v15.35h-37.61v20.75h30.82v15.35h-30.82v31.57h-16.98V970.57z"/>
      <path d="M523.8,970.57h16.98v67.67h36.35v15.35H523.8V970.57z"/>
      <path d="M608.58,970.57h16.98v83.02h-16.98V970.57z"/>
      <path d="M680.59,1049.44c-6.75-3.77-12.1-8.95-16.04-15.53c-3.94-6.58-5.91-13.86-5.91-21.82c0-8.05,1.95-15.35,5.85-21.89&#10;&#9;&#9;&#9;c3.9-6.54,9.25-11.7,16.04-15.47c6.79-3.77,14.3-5.66,22.52-5.66c7.3,0,13.94,1.57,19.94,4.72c5.99,3.15,11.01,7.57,15.03,13.27&#10;&#9;&#9;&#9;l-12.08,9.94c-5.87-8.13-13.58-12.2-23.14-12.2c-5.28,0-9.94,1.17-13.96,3.52c-4.03,2.35-7.15,5.58-9.37,9.69&#10;&#9;&#9;&#9;c-2.22,4.11-3.33,8.81-3.33,14.09c0,5.37,1.15,10.15,3.46,14.34c2.31,4.2,5.55,7.48,9.75,9.88c4.19,2.39,9.01,3.58,14.47,3.58&#10;&#9;&#9;&#9;c4.78,0,9.03-0.92,12.77-2.77c3.73-1.84,6.77-4.36,9.12-7.55v-6.79h-22.89v-14.72h39.87v24.53c-3.77,6.71-9.16,12.14-16.16,16.29&#10;&#9;&#9;&#9;c-7,4.15-14.82,6.23-23.46,6.23C694.82,1055.1,687.34,1053.21,680.59,1049.44z"/>
      <path d="M776.25,970.57h16.98v31.82h36.73v-31.82h16.98v83.02h-16.98v-35.85h-36.73v35.85h-16.98V970.57z"/>
      <path class="st0" d="M984.61,1050.13c-5.58-3.31-9.96-7.78-13.14-13.4l11.7-8.81c2.68,3.69,5.62,6.63,8.8,8.81&#10;&#9;&#9;&#9;c3.19,2.18,7.04,3.27,11.57,3.27c3.69,0,6.58-0.82,8.68-2.45c2.1-1.64,3.15-3.88,3.15-6.73c0-2.43-0.78-4.3-2.33-5.6&#10;&#9;&#9;&#9;c-1.55-1.3-4.3-2.87-8.24-4.72l-8.93-4.02c-6.37-2.85-11.32-6.16-14.84-9.94c-3.52-3.77-5.28-8.43-5.28-13.96&#10;&#9;&#9;&#9;c0-4.69,1.2-8.82,3.58-12.39c2.39-3.56,5.68-6.31,9.87-8.24c4.19-1.93,8.89-2.89,14.09-2.89c6.37,0,11.89,1.43,16.54,4.28&#10;&#9;&#9;&#9;c4.65,2.85,8.28,6.66,10.88,11.45l-11.57,8.93c-4.28-6.37-9.56-9.56-15.85-9.56c-2.94,0-5.39,0.69-7.36,2.08&#10;&#9;&#9;&#9;c-1.97,1.38-2.96,3.38-2.96,5.98c0,2.18,0.73,3.92,2.2,5.22c1.47,1.3,3.96,2.75,7.48,4.34l9.43,4.15&#10;&#9;&#9;&#9;c6.96,3.1,12.12,6.52,15.47,10.25c3.35,3.73,5.03,8.41,5.03,14.02c0,5.03-1.26,9.44-3.77,13.21c-2.52,3.77-5.97,6.67-10.38,8.68&#10;&#9;&#9;&#9;c-4.4,2.01-9.37,3.02-14.9,3.02C996.5,1055.1,990.18,1053.45,984.61,1050.13z"/>
      <path class="st0" d="M1100.65,969.06h-5.67l-37.11,84.54h18.25l21.64-52.83l21.64,52.83h18.23L1100.65,969.06z"/>
      <path class="st0" d="M1229.57,970.57l-36.98,84.53h-5.66l-37.11-84.53h19.25l20.75,50.31l20.63-50.31H1229.57z"/>
      <path class="st0" d="M1259.76,970.57h16.98v83.02h-16.98V970.57z"/>
      <path class="st0" d="M1353.85,1055.1c-8.05,0-15.43-1.89-22.14-5.66c-6.71-3.77-12.03-8.95-15.98-15.53&#10;&#9;&#9;&#9;c-3.94-6.58-5.91-13.86-5.91-21.82c0-7.96,1.97-15.24,5.91-21.82c3.94-6.58,9.26-11.76,15.98-15.53&#10;&#9;&#9;&#9;c6.71-3.77,14.09-5.66,22.14-5.66c8.05,0,15.45,1.89,22.2,5.66c6.75,3.77,12.12,8.95,16.1,15.53c3.98,6.59,5.97,13.86,5.97,21.82&#10;&#9;&#9;&#9;c0,7.97-1.99,15.24-5.97,21.82c-3.98,6.58-9.35,11.76-16.1,15.53C1369.3,1053.21,1361.9,1055.1,1353.85,1055.1z M1367.62,1035.92&#10;&#9;&#9;&#9;c4.07-2.31,7.25-5.53,9.56-9.69c2.31-4.15,3.46-8.87,3.46-14.15c0-5.2-1.15-9.87-3.46-14.02c-2.31-4.15-5.49-7.4-9.56-9.75&#10;&#9;&#9;&#9;c-4.07-2.35-8.62-3.52-13.65-3.52c-5.12,0-9.69,1.15-13.71,3.46c-4.02,2.31-7.19,5.54-9.5,9.69c-2.31,4.15-3.46,8.87-3.46,14.15&#10;&#9;&#9;&#9;c0,5.28,1.15,10,3.46,14.15c2.3,4.15,5.47,7.38,9.5,9.69c4.03,2.31,8.59,3.46,13.71,3.46&#10;&#9;&#9;&#9;C1359.01,1039.38,1363.55,1038.23,1367.62,1035.92z"/>
      <path class="st0" d="M1482.28,1053.59l-21.51-29.31h-12.45v29.31h-16.98v-83.02h31.19c5.79,0,10.94,1.11,15.47,3.33&#10;&#9;&#9;&#9;c4.53,2.22,8.07,5.37,10.63,9.43c2.56,4.07,3.84,8.74,3.84,14.03c0,5.28-1.3,9.98-3.9,14.09c-2.6,4.11-6.16,7.29-10.69,9.56&#10;&#9;&#9;&#9;l23.52,32.58H1482.28z M1448.31,1009.32h14.21c3.94,0,7.02-1.09,9.25-3.27c2.22-2.18,3.33-5.07,3.33-8.68&#10;&#9;&#9;&#9;c0-3.52-1.13-6.37-3.4-8.55c-2.26-2.18-5.33-3.27-9.18-3.27h-14.21V1009.32z"/>
    </g>
    <path class="st1" d="M904.96,961.57c-0.7-0.41-1.4-0.84-2.11-1.24c-5.57-3.09-11.14-6.18-16.71-9.27&#10;&#9;&#9;c-0.23-0.13-0.45-0.27-0.65-0.43c-0.82-0.68-0.95-1.57-0.26-2.36c0.89-1.01,1.83-1.96,2.77-2.93c0.53-0.54,1.17-0.5,1.85-0.32&#10;&#9;&#9;c3.94,1.07,7.88,2.13,11.83,3.19c6.44,1.72,12.88,3.44,19.31,5.16c1.04,0.28,2.1,0.51,3.13,0.84c1.03,0.33,1.98,0.24,2.98-0.12&#10;&#9;&#9;c3.47-1.24,6.95-2.44,10.42-3.66c1.42-0.5,2.83-1.02,4.24-1.51c3.12-1.1,6.16-0.62,9.15,0.53c1.5,0.58,2.89,1.38,4.12,2.43&#10;&#9;&#9;c0.99,0.84,1.78,1.82,1.85,3.18c0.09,1.63-0.88,2.7-2.08,3.58c-1.62,1.19-3.5,1.85-5.37,2.5c-8.16,2.86-16.32,5.71-24.47,8.59&#10;&#9;&#9;c-6.72,2.37-13.42,4.79-20.14,7.16c-2.75,0.97-5.61,1.47-8.5,1.83c-3.76,0.47-7.52,0.47-11.29,0.23&#10;&#9;&#9;c-3.74-0.24-7.46-0.69-11.07-1.78c-0.88-0.27-1.55-0.73-2.11-1.48c-3.11-4.18-6.25-8.34-9.38-12.51c-0.18-0.24-0.35-0.49-0.49-0.76&#10;&#9;&#9;c-0.4-0.81-0.17-1.76,0.65-2.1c1.27-0.54,2.56-1.06,3.9-1.36c0.54-0.12,1.27,0.26,1.82,0.57c2.43,1.37,4.82,2.79,7.22,4.2&#10;&#9;&#9;c2.56,1.49,5.14,2.96,7.67,4.49c0.86,0.52,1.68,0.64,2.62,0.31c2.04-0.72,4.09-1.41,6.13-2.12c3.95-1.38,7.89-2.77,11.84-4.16&#10;&#9;&#9;c0.38-0.14,0.75-0.31,1.13-0.47C904.97,961.71,904.97,961.64,904.96,961.57z"/>
    <polygon points="903.54,1053.59 920.52,1053.59 920.52,981.45 903.54,987.28 &#9;"/>
    <g>
      <polygon class="st1" points="1490.69,1026.6 1497.09,1035.66 1562.36,1035.66 1554.6,1026.93 &#9;&#9;"/>
      <polygon class="st1" points="1502.92,1043.09 1508.99,1052.16 1542.19,1052.16 1537.06,1043.42 &#9;&#9;"/>
    </g>
  </g>
</svg>